<svg xmlns="http://www.w3.org/2000/svg" xmlns:xlink="http://www.w3.org/1999/xlink" viewBox="0 0 500 500"><defs><clipPath id="freepik--clip-path--inject-15"><path d="M373.36,208.72c12.39,6.59,60.49,39.21,70,49.4s-4.58,89.95-4.58,89.95H414.91l5.59-76.95-54.15-21.3Z" style="fill:#10B981;stroke:#263238;stroke-linecap:round;stroke-linejoin:round"></path></clipPath><clipPath id="freepik--clip-path-2--inject-15"><polygon points="365 316.62 365 268.35 375.8 264.54 403.82 280.36 405.59 324.21 365 316.62" style="fill:#757575;stroke:#263238;stroke-linecap:round;stroke-linejoin:round"></polygon></clipPath><clipPath id="freepik--clip-path-3--inject-15"><polygon points="386.86 312.32 381.54 270.29 390.91 262.31 424.83 273.84 429.64 316.62 386.86 312.32" style="fill:#10B981;stroke:#263238;stroke-linecap:round;stroke-linejoin:round"></polygon></clipPath><clipPath id="freepik--clip-path-4--inject-15"><polygon points="345.38 299.41 399.77 292.32 448.37 303.02 446.35 357.63 402.3 364.59 341.57 359.15 345.38 299.41" style="fill:#999;stroke:#263238;stroke-linecap:round;stroke-linejoin:round"></polygon></clipPath><clipPath id="freepik--clip-path-5--inject-15"><path d="M371.76,242.94a180.81,180.81,0,0,1-10.51,39c-15.81,40.07-.35,64-12.54,70.42-8.11,4.26-88.17,1.56-94.52-9.77-8.53-15.22.71-134.3,10.32-139,21.53-10.64,74.06-8.63,108.85,5.21,0,0,.18,1.68.29,4.75" style="fill:#10B981;stroke:#263238;stroke-linecap:round;stroke-linejoin:round"></path></clipPath><clipPath id="freepik--clip-path-6--inject-15"><path d="M272,234.79a59.79,59.79,0,0,1-2.55,10.81l-64.2,39.82s-10.06-4.5-3-30.33,62.24-51.58,62.24-51.58a24.3,24.3,0,0,1,2.65,3.83" style="fill:#10B981;stroke:#263238;stroke-linecap:round;stroke-linejoin:round"></path></clipPath></defs><g id="freepik--background-simple--inject-15"><path d="M67.93,167.09s-27.88,72,11.3,144.5S199.11,422.39,263.7,455.14s131.66,16.8,163.53-36.84-11.84-91.93-11.9-168.42,11.45-96.74-30-161.36-143.06-78.93-219.9-31S67.93,167.09,67.93,167.09Z" style="fill:#fff;opacity:0.7000000000000001"></path><path d="M102,440.62s-58.8-14-63-87.77c-3.48-60.71,91.93-125.54,72.2-179.15C87,107.91,168.82,54.26,259.86,89.1S297.59,203.17,355,211.84C445.6,225.53,475.4,381,370.65,441.15Z" style="fill:#10B981"></path><path d="M102,440.62s-58.8-14-63-87.77c-3.48-60.71,91.93-125.54,72.2-179.15C87,107.91,168.82,54.26,259.86,89.1S297.59,203.17,355,211.84C445.6,225.53,475.4,381,370.65,441.15Z" style="fill:#fff;opacity:0.7000000000000001"></path></g><g id="freepik--Door--inject-15"><polyline points="70.48 273.7 120.11 273.7 120.11 440.59" style="fill:none;stroke:#263238;stroke-linecap:round;stroke-linejoin:round"></polyline><polygon points="189.12 348.42 133.57 348.42 133.57 355.68 140.82 355.68 140.82 440.69 189.12 440.69 189.12 348.42" style="fill:#999"></polygon><path d="M126.5,298.41s1.4-6.73,0-10.74a3.58,3.58,0,0,1,1.53,0c.76.18,1.27,4.77,1.27,4.77s3.57-3.68,4.33-3.37a3.62,3.62,0,0,1,1.65,2c.13.56,1,1.37,1.28,1.79s.63,2,1,2.84-1.78,5-7,6.24Z" style="fill:#fff;stroke:#263238;stroke-linecap:round;stroke-linejoin:round"></path><path d="M97.84,291.11a5.33,5.33,0,0,0-2.46,1.05c-.85.52-1.81,1.17-2.75,1.84-2.17,1.55-4.17,3.14-4.17,3.14l-6-7,2.93-6.25S99.28,291.41,97.84,291.11Z" style="fill:#fff;stroke:#263238;stroke-linecap:round;stroke-linejoin:round"></path><path d="M95.38,292.16c-.85.52-1.81,1.17-2.75,1.84a10.5,10.5,0,0,1-5.18-7.74S92.28,289.52,95.38,292.16Z" style="fill:#263238"></path><path d="M80.78,291.21l1.58-3.54s8.49,2.5,10.35,8.09l-7.43,2.65Z" style="fill:#10B981;stroke:#263238;stroke-linecap:round;stroke-linejoin:round"></path><path d="M87,267.54c3.47-4.82,14.62-.44,16.31,5.17s.32,18.38-3.64,19.73C89.51,295.9,78.61,279.14,87,267.54Z" style="fill:#fff;stroke:#263238;stroke-linecap:round;stroke-linejoin:round"></path><path d="M93,273.76s2.21-2,8-1.52l-1.72,1.93s4.79.84,5.91-1.77-5.72-13.71-18.76-7.13c-9,4.52-2.37,21-2.37,21l2.33-1.18L88,283.36s-3.21-3.11-.91-5.61S91.4,279,91.4,279,93.83,276.13,93,273.76Z" style="fill:#263238"></path><path d="M94.25,277.15a7.47,7.47,0,0,1,3.12,0" style="fill:none;stroke:#263238;stroke-linecap:round;stroke-linejoin:round"></path><path d="M101.59,277.06a5,5,0,0,1,1.72-.38" style="fill:none;stroke:#263238;stroke-linecap:round;stroke-linejoin:round"></path><path d="M96.42,280.07c0,.63-.27,1.13-.61,1.13s-.62-.5-.62-1.13.28-1.13.62-1.13S96.42,279.45,96.42,280.07Z" style="fill:#263238"></path><path d="M102.21,280.07c0,.63-.28,1.13-.62,1.13s-.62-.5-.62-1.13.28-1.13.62-1.13S102.21,279.45,102.21,280.07Z" style="fill:#263238"></path><path d="M100.49,280.07a34.9,34.9,0,0,0,1.1,4.09l-1.1,1" style="fill:#fff;stroke:#263238;stroke-linecap:round;stroke-linejoin:round"></path><path d="M100.49,286.26a21.32,21.32,0,0,1-5.3,0A3,3,0,0,0,97.84,289c2.55.38,1.69-2.1,1.69-2.1" style="fill:#fff;stroke:#263238;stroke-linecap:round;stroke-linejoin:round"></path><path d="M70.48,300.58s7.12-9.76,11.22-9.46,16.14,7.55,16.14,7.55l12.76,19.78L124,302.06l2.77-4.82,5.25,4.82-1.91,1.88a53.54,53.54,0,0,1-3.34,12.24c-2.39,5.39-7.45,16.75-13.12,18.13s-17.8-11.37-17.8-11.37-6.2,17.95-6.2,24.7L70.48,349Z" style="fill:#10B981;stroke:#263238;stroke-linecap:round;stroke-linejoin:round"></path><path d="M90.18,308.54a47,47,0,0,1,1.23-4.66" style="fill:none;stroke:#263238;stroke-linecap:round;stroke-linejoin:round"></path><path d="M95.81,322.94c-3.4-3.47-6.71-6.65-6.07-11.78" style="fill:none;stroke:#263238;stroke-linecap:round;stroke-linejoin:round"></path><path d="M89.61,347.64l.57,5.48s11.19,22.7,14.95,32.45c7.48,19.36,0,55,0,55h-9.3s-2.06-38.19-3.07-39.21S76.5,376.61,76.5,376.61l-6,18.5V349Z" style="fill:#263238"></path><path d="M165.15,369.28s-5.08,12.38-4,18.77,12.23,52.54,12.23,52.54h5.4s-.13-29.76-1.79-37-4.35-14.72-4.12-16.66,7.4-17.66,7.4-17.66Z" style="fill:#fff;stroke:#263238;stroke-linecap:round;stroke-linejoin:round"></path><path d="M147,242.56s-1.72,1.69-2.75,16.51l-5.57-1.88s3.38-11.83,3.2-16.82" style="fill:#fff;stroke:#263238;stroke-linecap:round;stroke-linejoin:round"></path><path d="M145.93,242.64a3.4,3.4,0,0,0,2.47-.82,6.18,6.18,0,0,0,1.19-1.16,8.11,8.11,0,0,1,1-1.1c.25-.23.5-.44.75-.64a16.27,16.27,0,0,1,1.6-1.13s-.05-1.06-1-.82a2.77,2.77,0,0,0-.75.34c-.4.24-.79.55-1.11.78a1.38,1.38,0,0,1-.62.29,1.17,1.17,0,0,1-.27,0h0l-.1,0a1.16,1.16,0,0,1-.49-.3.78.78,0,0,1-.15-.22l0-.06a1.21,1.21,0,0,1,0-.18,3.41,3.41,0,0,1,0-1h0a9.37,9.37,0,0,1,.3-1.49h0c0-.18.1-.37.16-.54a11.44,11.44,0,0,1,.47-1.3c.13-.3.27-.63.39-1s.22-.64.31-.94c.24-.88.25-1.6-.35-1.61s-.67.31-.95,1.06c-.11.26-.23.57-.39.94a13.84,13.84,0,0,1-1,1.84h0l-.15.23-.35-.09c0,.05,0-.08,0-.35h0a16.55,16.55,0,0,1,.32-2.11c.07-.32.15-.65.23-1s.17-.6.26-.89c.46-1.46-.68-1.31-1.06-.94a3.84,3.84,0,0,0-.57,1.49c-.09.32-.18.67-.27,1,0,.16-.09.32-.14.46-.19.61-.39,1.25-.52,1.69l-.06.17-.47.06,0-.23h0a10.78,10.78,0,0,1-.08-2c0-.45.07-.8.09-1.08,0-.52,0-.78-.33-.95s-.74.28-1,.92a5.26,5.26,0,0,0-.26,1.57h0a2.3,2.3,0,0,0,0,.28,6.09,6.09,0,0,1-.09,1.45,2.5,2.5,0,0,0-.05.29l-.32.22a3.45,3.45,0,0,1-.11-.4h0a10.38,10.38,0,0,1-.26-1.28h0a9.36,9.36,0,0,0-.16-1c-.07-.26-.18-.41-.41-.46s-.54.34-.61.88a4,4,0,0,0,0,1,2.62,2.62,0,0,0,.14.72,6.3,6.3,0,0,1,.18,1.36c0,.19,0,.38,0,.56,0,.68,0,1.31,0,1.53v.08c-.1.49-.17.91-.22,1.28a5.81,5.81,0,0,0,.17,2.65,2.39,2.39,0,0,0,1.38,1.18" style="fill:#fff;stroke:#263238;stroke-linecap:round;stroke-linejoin:round"></path><path d="M148.39,237.72a2.88,2.88,0,0,0-3.16,1" style="fill:none;stroke:#263238;stroke-linecap:round;stroke-linejoin:round"></path><path d="M167.12,244.71s2,8.88,0,14.3-2.92,19.69,9,23.54,12.72,2.09,12.72,2.09l-.27-39.07-15.13-9.11Z" style="fill:#263238"></path><path d="M177,265.82l-11.87.46-20.81,6.48,1.81-25.63.83-2.42-5.83-1.54-.57,2.73s-8.88,31.58-6.66,36.58,29.59-1.8,29.59-1.8,1,13.75,4.86,18.61,7.36,15,7.36,15H188.8V263.44Z" style="fill:#10B981;stroke:#263238;stroke-linecap:round;stroke-linejoin:round"></path><path d="M187.44,264.57s-7.85,6.68-7.79,4.45a26.38,26.38,0,0,0-.83-7.43,23.78,23.78,0,0,0-1.28-3.81c-.26-.56-.41-.86-.41-.86l9.06-12.81Z" style="fill:#fff;stroke:#263238;stroke-linecap:round;stroke-linejoin:round"></path><polygon points="187.85 259.65 179.83 268.38 178.48 262.08 172.9 270.05 177.13 268.18 179.15 275.05 181.65 269.01 187.85 271.93 189.12 260.96 187.85 259.65" style="fill:#10B981;stroke:#263238;stroke-linecap:round;stroke-linejoin:round"></polygon><path d="M175.73,314.3s-2.31,15.32-2.32,18.7c0,0-8.89,28.92-10.56,40.52,0,0,10.05,5.06,26,3.09V314.3Z" style="fill:#263238"></path><path d="M163.51,280.68s-1.89-9.06,0-10.71" style="fill:none;stroke:#263238;stroke-linecap:round;stroke-linejoin:round"></path><path d="M179.15,278.74s-.06,12.89,1.15,17.35" style="fill:none;stroke:#263238;stroke-linecap:round;stroke-linejoin:round"></path><path d="M184.43,253.46s-1.07,6.16-5.61,8.13a23.78,23.78,0,0,0-1.28-3.81C180.56,255.61,184.43,253.46,184.43,253.46Z" style="fill:#263238"></path><path d="M179.62,229.16c-13.64-.68-12.23,13.76-10.28,24.43,1.38,7.5,7.68,9.7,15.28,1.36C188.41,250.8,191,229.73,179.62,229.16Z" style="fill:#fff;stroke:#263238;stroke-linecap:round;stroke-linejoin:round"></path><path d="M180,234.29s.54,9.86,5.55,14.16,3.21,12.64,3.21,12.64l.32-32.73s-8.11-2.13-13.66-.74c0,0-9.17.69-10.14,7.36s2.55,13.47,2.55,13.47S168.51,234.42,180,234.29Z" style="fill:#263238"></path><path d="M179.15,245.9c0,.68-.3,1.23-.67,1.23s-.68-.55-.68-1.23.3-1.24.68-1.24S179.15,245.21,179.15,245.9Z" style="fill:#263238"></path><path d="M172.06,245.9c0,.68-.3,1.23-.67,1.23s-.67-.55-.67-1.23.3-1.24.67-1.24S172.06,245.21,172.06,245.9Z" style="fill:#263238"></path><path d="M177.1,242.05a3.25,3.25,0,0,1,2.76.58" style="fill:none;stroke:#263238;stroke-linecap:round;stroke-linejoin:round"></path><path d="M171.14,242.74a3.86,3.86,0,0,0-3.45.87" style="fill:none;stroke:#263238;stroke-linecap:round;stroke-linejoin:round"></path><path d="M172.9,247.82l-1.67,2s.83,1.46,1.67,1.78" style="fill:none;stroke:#263238;stroke-linecap:round;stroke-linejoin:round"></path><path d="M172.06,253.48a10.07,10.07,0,0,0,5-1s0,3.45-2.48,3.44c-1.44,0-1.54-1.67-1.54-1.67" style="fill:none;stroke:#263238;stroke-linecap:round;stroke-linejoin:round"></path><line x1="153.91" y1="160.62" x2="153.91" y2="183.8" style="fill:none;stroke:#263238;stroke-linecap:round;stroke-linejoin:round"></line><polygon points="182.95 188.31 124.61 188.31 126.72 183.8 180.85 183.8 182.95 188.31" style="fill:none;stroke:#263238;stroke-linecap:round;stroke-linejoin:round"></polygon><line x1="104.72" y1="160.62" x2="104.72" y2="219.29" style="fill:none;stroke:#263238;stroke-linecap:round;stroke-linejoin:round"></line><polygon points="126.76 222.72 82.48 222.72 84.08 219.29 125.16 219.29 126.76 222.72" style="fill:none;stroke:#263238;stroke-linecap:round;stroke-linejoin:round"></polygon><polyline points="234.21 440.59 234.21 153.1 70.48 153.1 70.48 440.59" style="fill:none;stroke:#263238;stroke-linecap:round;stroke-linejoin:round"></polyline><polyline points="226.55 160.62 189.12 190.62 189.12 440.59 226.55 440.59" style="fill:#fff;stroke:#263238;stroke-linecap:round;stroke-linejoin:round"></polyline><polygon points="192.76 342.72 180.91 342.72 180.91 290.88 192.76 290.88 192.76 294.62 185.22 294.62 185.22 338.88 192.76 338.88 192.76 342.72" style="fill:#bfbfbf;stroke:#263238;stroke-miterlimit:10"></polygon><polyline points="226.55 440.59 226.55 160.62 70.48 160.62 70.48 440.59" style="fill:none;stroke:#263238;stroke-linecap:round;stroke-linejoin:round"></polyline><rect x="135.05" y="124.74" width="34.96" height="19.93" style="fill:#10B981;stroke:#263238;stroke-linecap:round;stroke-linejoin:round"></rect><polygon points="198.04 215.22 198.04 259.81 213.87 253.51 213.87 205.78 198.04 215.22" style="fill:#fff;stroke:#263238;stroke-linecap:round;stroke-linejoin:round"></polygon><polyline points="199.9 259.07 199.9 216.87 211.93 210.19" style="fill:#fff;stroke:#263238;stroke-linecap:round;stroke-linejoin:round"></polyline><path d="M144.34,133.61h2.37v1.57h-2.37v3.22h3V140h-4.7V129h4.7v1.57h-3Z" style="fill:#263238"></path><path d="M154.15,129l-1.81,5.33,1.93,5.65h-1.82l-1.39-4.35h0L149.61,140H148l1.93-5.65L148.12,129h1.79l1.29,4h0l1.32-4Z" style="fill:#263238"></path><path d="M155.13,129h1.73v11h-1.73Z" style="fill:#263238"></path><path d="M157.61,129h5.33v1.57h-1.8V140h-1.72v-9.41h-1.81Z" style="fill:#263238"></path></g><g id="freepik--Window--inject-15"><line x1="260.93" y1="86.83" x2="260.93" y2="440.69" style="fill:none;stroke:#263238;stroke-linecap:round;stroke-linejoin:round"></line><line x1="260.93" y1="68.77" x2="260.93" y2="82.66" style="fill:none;stroke:#263238;stroke-linecap:round;stroke-linejoin:round"></line><line x1="260.93" y1="58.4" x2="260.93" y2="61.83" style="fill:none;stroke:#263238;stroke-linecap:round;stroke-linejoin:round"></line><rect x="284.13" y="156.49" width="128.96" height="194.04" style="fill:none;stroke:#263238;stroke-linecap:round;stroke-linejoin:round"></rect><line x1="348.61" y1="156.49" x2="348.61" y2="350.54" style="fill:none;stroke:#263238;stroke-linecap:round;stroke-linejoin:round"></line><polyline points="409.61 161.11 352.09 161.11 352.09 345.2" style="fill:none;stroke:#263238;stroke-linecap:round;stroke-linejoin:round"></polyline><polyline points="344.61 161.11 287.91 161.11 287.91 345.2" style="fill:none;stroke:#263238;stroke-linecap:round;stroke-linejoin:round"></polyline></g><g id="freepik--Floor--inject-15"><line x1="57.46" y1="440.59" x2="442.54" y2="440.59" style="fill:none;stroke:#263238;stroke-linecap:round;stroke-linejoin:round;stroke-width:0.9790968298912048px"></line></g><g id="freepik--Character--inject-15"><path d="M373.36,208.72c12.39,6.59,60.49,39.21,70,49.4s-4.58,89.95-4.58,89.95H414.91l5.59-76.95-54.15-21.3Z" style="fill:#10B981"></path><g style="clip-path:url(#freepik--clip-path--inject-15)"><path d="M439.84,341.81c-10.74-.13-19.4-.28-19.4-.28l-5.05-.13,5.1-70.28-52.13-20.51L368,246.2s7.85-.06,13.55-5.07a6.83,6.83,0,0,1,0,6.25s44.74,20.19,53.93,13a12.78,12.78,0,0,0,4.22-5.75,49.67,49.67,0,0,1,3.67,3.45C451.27,266.56,442.93,322.81,439.84,341.81Z" style="fill-opacity:0.7000000000000001;opacity:0.30000000000000004"></path></g><path d="M373.36,208.72c12.39,6.59,60.49,39.21,70,49.4s-4.58,89.95-4.58,89.95H414.91l5.59-76.95-54.15-21.3Z" style="fill:none;stroke:#263238;stroke-linecap:round;stroke-linejoin:round"></path><polygon points="357.58 314.43 351.16 283.74 370.74 278.44 381.54 305.65 357.58 314.43" style="fill:#757575;stroke:#263238;stroke-linecap:round;stroke-linejoin:round"></polygon><polygon points="365 316.62 365 268.35 375.8 264.54 403.82 280.36 405.59 324.21 365 316.62" style="fill:#757575"></polygon><g style="clip-path:url(#freepik--clip-path-2--inject-15)"><polygon points="365 268.35 375.8 264.54 375.72 309.03 365 309.03 365 268.35" style="fill-opacity:0.7000000000000001;opacity:0.30000000000000004"></polygon></g><polygon points="365 316.62 365 268.35 375.8 264.54 403.82 280.36 405.59 324.21 365 316.62" style="fill:none;stroke:#263238;stroke-linecap:round;stroke-linejoin:round"></polygon><polygon points="386.86 312.32 381.54 270.29 390.91 262.31 424.83 273.84 429.64 316.62 386.86 312.32" style="fill:#10B981"></polygon><g style="clip-path:url(#freepik--clip-path-3--inject-15)"><polygon points="381.54 270.29 385.3 300.77 394.97 296.43 390.91 262.31 381.54 270.29" style="fill-opacity:0.7000000000000001;opacity:0.30000000000000004"></polygon></g><polygon points="386.86 312.32 381.54 270.29 390.91 262.31 424.83 273.84 429.64 316.62 386.86 312.32" style="fill:none;stroke:#263238;stroke-linecap:round;stroke-linejoin:round"></polygon><line x1="393.42" y1="285.99" x2="393.69" y2="288.54" style="fill:none;stroke:#263238;stroke-linecap:round;stroke-linejoin:round"></line><line x1="390.91" y1="262.31" x2="392.78" y2="279.93" style="fill:none;stroke:#263238;stroke-linecap:round;stroke-linejoin:round"></line><line x1="375.72" y1="278.44" x2="375.72" y2="295.45" style="fill:none;stroke:#263238;stroke-linecap:round;stroke-linejoin:round"></line><line x1="375.72" y1="268.35" x2="375.72" y2="271.12" style="fill:none;stroke:#263238;stroke-linecap:round;stroke-linejoin:round"></line><polygon points="423.82 282.19 402.3 276.27 403.58 287.27 424.83 292.32 423.82 282.19" style="fill:#fff;stroke:#263238;stroke-linecap:round;stroke-linejoin:round"></polygon><path d="M419.35,309.36s-2-45.44,6.41-56.64,3.37,25.59,3.37,25.59,12.49-41.52,22.28-40.17-14.51,44.22-14.51,44.22,16.2-17.52,20.92-15.34-19.34,25.3-19.34,25.3,5.84-5.57,9.89-1.18S430.82,307,429.81,314.43Z" style="fill:#263238"></path><path d="M441.08,293.81a.67.67,0,0,0-.92.23A35.16,35.16,0,0,1,428,305.71c.39-1.87,1.2-5.53,2.31-10,3.15-5.1,10.78-10.82,10.86-10.88a.67.67,0,0,0,.13-.93.66.66,0,0,0-.93-.14,62.9,62.9,0,0,0-9.17,8.5c2.49-9.5,6.1-21.24,10.14-27.8a.67.67,0,0,0-1.14-.7C434.3,273.33,429.43,293,427.4,302c-3.13-13.76-1.92-32.06-1.91-32.26a.66.66,0,0,0-.61-.71.66.66,0,0,0-.71.62c0,.21-1.4,21.11,2.59,35.26-.21,1-.35,1.67-.38,1.84a.68.68,0,0,0,.24.65.7.7,0,0,0,.41.14.72.72,0,0,0,.29-.06c8.78-4.09,13.78-12.45,14-12.8A.66.66,0,0,0,441.08,293.81Z" style="fill:#fff;opacity:0.2"></path><polygon points="345.38 299.41 399.77 292.32 448.37 303.02 446.35 357.63 402.3 364.59 341.57 359.15 345.38 299.41" style="fill:#999"></polygon><g style="clip-path:url(#freepik--clip-path-4--inject-15)"><polygon points="448.37 303.02 447.63 322.96 409.99 324.21 402.31 313.87 402.31 364.59 341.58 359.14 345.39 299.42 399.77 292.31 448.37 303.02" style="fill-opacity:0.7000000000000001;opacity:0.30000000000000004"></polygon></g><polygon points="345.38 299.41 399.77 292.32 448.37 303.02 446.35 357.63 402.3 364.59 341.57 359.15 345.38 299.41" style="fill:none;stroke:#263238;stroke-linecap:round;stroke-linejoin:round"></polygon><polygon points="399.77 292.32 416.64 319.62 458.44 321.51 448.37 303.02 399.77 292.32" style="fill:#bfbfbf;stroke:#263238;stroke-linecap:round;stroke-linejoin:round"></polygon><polygon points="399.77 292.32 392 319.62 339.01 321.51 345.38 299.41 399.77 292.32" style="fill:#999;stroke:#263238;stroke-linecap:round;stroke-linejoin:round"></polygon><line x1="402.3" y1="306.92" x2="402.3" y2="302.95" style="fill:none;stroke:#263238;stroke-linecap:round;stroke-linejoin:round"></line><line x1="402.3" y1="327" x2="402.3" y2="314.43" style="fill:none;stroke:#263238;stroke-linecap:round;stroke-linejoin:round"></line><line x1="402.3" y1="364.59" x2="402.3" y2="331.56" style="fill:none;stroke:#263238;stroke-linecap:round;stroke-linejoin:round"></line><path d="M252.81,440.68h76.27a433.76,433.76,0,0,0,16.57-89.26l-89.92-12.35-2.63,12.77s-8.54,15.66-5.9,56.25A174.85,174.85,0,0,0,252.81,440.68Z" style="fill:#263238"></path><path d="M257,350.38c16,12.13,69,17.51,86.23,7.17l.51-11.23-85.16-6Z" style="fill:#757575;stroke:#263238;stroke-linecap:round;stroke-linejoin:round"></path><path d="M303.87,351.66V363s9.69,1.32,13.89-.07l.7-11.29Z" style="fill:#bfbfbf;stroke:#263238;stroke-miterlimit:10"></path><path d="M282.61,349.09s-.9,8.08-1.5,11.59h-3.77s1.06-9.13,1.94-11.59Z" style="fill:#263238"></path><path d="M331.41,363.67s0-8.13.28-11.69l3.74-.4s-.09,9.2-.7,11.74Z" style="fill:#263238"></path><path d="M301.13,190c7-4.13,31.73-1,35,2.11s-9.22,44.81-9.22,44.81l-20.56,2.71Z" style="fill:#10B981;stroke:#263238;stroke-linecap:round;stroke-linejoin:round"></path><path d="M371.76,242.94a180.81,180.81,0,0,1-10.51,39c-15.81,40.07-.35,64-12.54,70.42-8.11,4.26-88.17,1.56-94.52-9.77-8.53-15.22.71-134.3,10.32-139,21.53-10.64,74.06-8.63,108.85,5.21,0,0,.18,1.68.29,4.75" style="fill:#10B981"></path><g style="clip-path:url(#freepik--clip-path-5--inject-15)"><path d="M313.08,246.2S310.27,268.53,294.6,275,276,286,276.07,292.66c0,0-8,11.53-9.09,21.77-.73,7.14-5.74,17.1-14.79,20.93-2.49-15.77-1.36-50.08,1.52-79.75L257,253.3s13.05-14.84,14.69-25.36a14.09,14.09,0,0,0,.16-1.66c.36-10.55,11.41,14,5,28.42S313.08,246.2,313.08,246.2Z" style="fill-opacity:0.7000000000000001;opacity:0.30000000000000004"></path><path d="M341.39,223.73l-10.47-10.61-8,8.23-10.26-4.21L301.09,228c-7.29-7.29-8.16-22.72-8-30.87a202.54,202.54,0,0,1,49.34,3h0C346.17,214.93,341.39,223.73,341.39,223.73Z" style="fill-opacity:0.7000000000000001;opacity:0.30000000000000004"></path></g><path d="M371.76,242.94a180.81,180.81,0,0,1-10.51,39c-15.81,40.07-.35,64-12.54,70.42-8.11,4.26-88.17,1.56-94.52-9.77-8.53-15.22.71-134.3,10.32-139,21.53-10.64,74.06-8.63,108.85,5.21,0,0,.18,1.68.29,4.75" style="fill:none;stroke:#263238;stroke-linecap:round;stroke-linejoin:round"></path><path d="M337,200.1S325.06,219,322.94,219c-2.88,0-21.81-18.18-21.81-18.18a13.57,13.57,0,0,0,4-7.26,26.26,26.26,0,0,0,0-9.74c-.16-.91-.3-1.44-.3-1.44l-3.72-40.59,40.51,7.17C330.57,178.81,330.92,196.59,337,200.1Z" style="fill:#fff;stroke:#263238;stroke-linecap:round;stroke-linejoin:round"></path><path d="M297.94,198.45S301,215,311.63,225.58l7.83,2.63s14-15.09,17.57-28.1l4.62,3.33s-11.53,23.26-20.26,26.91L312,241.45s1.79,14.32-10.88,19S253.65,289.88,260.49,312l-12.66,5.76L242,304.54s4.77-17.9,18.46-32.09,43.18-8.8,47.94-31V228S290.31,207,297.94,198.45Z" style="fill:#263238"></path><path d="M335,207.92l10.56,10.28c1.4-19.24-9.41-26.09-9.41-26.09,1.32,6.85-5.19,11.06-5.19,11.06a30.9,30.9,0,0,1-9.3,13.83,86.57,86.57,0,0,1-10-11.72c-6-2.63-10.5-15.28-10.5-15.28a28.13,28.13,0,0,0-6.53,7.78s.93,17.52,8,24.9a85.35,85.35,0,0,1,9-10.54l11.31,9.22Z" style="fill:#10B981;stroke:#263238;stroke-linecap:round;stroke-linejoin:round"></path><path d="M272,234.79a59.79,59.79,0,0,1-2.55,10.81l-64.2,39.82s-10.06-4.5-3-30.33,62.24-51.58,62.24-51.58a24.3,24.3,0,0,1,2.65,3.83" style="fill:#10B981"></path><g style="clip-path:url(#freepik--clip-path-6--inject-15)"><path d="M272,234.78a58.5,58.5,0,0,1-2.56,10.82l-24.15,15c-11.54,0-23.81-.86-26.8-3.94-6-6.17,2.44-10.22,2.44-10.22,5.6-4.44,24.62-6.1,33.06-8.31s16.86-8,16.86-8l.42.52Z" style="fill-opacity:0.7000000000000001;opacity:0.30000000000000004"></path></g><path d="M272,234.79a59.79,59.79,0,0,1-2.55,10.81l-64.2,39.82s-10.06-4.5-3-30.33,62.24-51.58,62.24-51.58a24.3,24.3,0,0,1,2.65,3.83" style="fill:none;stroke:#263238;stroke-linecap:round;stroke-linejoin:round"></path><path d="M286,238.75s10.09-9.22,11.9-11.33,15.64-5.53,17.55-4.74.86,3.42.86,3.42,3.84,0,3.11,2.11-7.5,5-7.5,5,5.3,3.95,6.16,5.53-2.63,4.22-2.63,4.22,1,2.63,0,3.43-6.15,4.74-6.15,4.74-1.9-.79.18-4.22l-2.94-.14s-8.68,5.41-14.74,4.36Z" style="fill:#fff;stroke:#263238;stroke-linecap:round;stroke-linejoin:round"></path><path d="M215.63,253c19-8.52,57.33-17.07,61.45-11.92l9-4.2s7.64,8.68,5.8,17.12l-7.24,1.58s-7.78,16.34-47.84,32.15c-22.53,8.9-31.31,2-33.73-7.52" style="fill:#10B981;stroke:#263238;stroke-linecap:round;stroke-linejoin:round"></path><path d="M341.7,274.74a61.65,61.65,0,0,0,13.83-.32l3.27-14.5" style="fill:none;stroke:#263238;stroke-linecap:round;stroke-linejoin:round"></path><line x1="333.39" y1="269.73" x2="332.87" y2="273.01" style="fill:none;stroke:#263238;stroke-linecap:round;stroke-linejoin:round"></line><path d="M359.85,255.25l1.3-5.78s-16.87-.25-24.25-2.11L334,265.94" style="fill:none;stroke:#263238;stroke-linecap:round;stroke-linejoin:round"></path><path d="M309.31,333.31q0,2.88.21,5.76" style="fill:none;stroke:#263238;stroke-linecap:round;stroke-linejoin:round"></path><path d="M311,307.7a157.87,157.87,0,0,0-1.73,22" style="fill:none;stroke:#263238;stroke-linecap:round;stroke-linejoin:round"></path><path d="M318.92,260.41c-1.74,14.71-5.12,29.15-7.39,43.78" style="fill:none;stroke:#263238;stroke-linecap:round;stroke-linejoin:round"></path><path d="M321.39,238.11c-.65,5.94-1.28,11.89-1.95,17.83" style="fill:none;stroke:#263238;stroke-linecap:round;stroke-linejoin:round"></path><path d="M282.54,390.92a24.15,24.15,0,0,0-5.2-1.95" style="fill:none;stroke:#fff;stroke-linecap:round;stroke-linejoin:round"></path><path d="M316,437.67C315,430,314,422,311,414c-5-10-17-13-24.45-20.87" style="fill:none;stroke:#fff;stroke-linecap:round;stroke-linejoin:round"></path><path d="M312.68,377.63c-.62,8.37,1.49,19.1-3.4,26.45" style="fill:none;stroke:#fff;stroke-linecap:round;stroke-linejoin:round"></path><path d="M313.71,366.83c-.24,2-.44,4.06-.63,6.1" style="fill:none;stroke:#fff;stroke-linecap:round;stroke-linejoin:round"></path><path d="M316.5,411.28a48.78,48.78,0,0,0,4.89,3" style="fill:none;stroke:#fff;stroke-linecap:round;stroke-linejoin:round"></path><path d="M289.12,381.59a115.29,115.29,0,0,0,23.2,26.53" style="fill:none;stroke:#fff;stroke-linecap:round;stroke-linejoin:round"></path><path d="M261.71,357.63s.36,13.77-10.89,19" style="fill:none;stroke:#fff;stroke-linecap:round;stroke-linejoin:round"></path><path d="M341.57,363.59s-1.05,7.38.08,10.62" style="fill:none;stroke:#fff;stroke-linecap:round;stroke-linejoin:round"></path><path d="M254,430.78q2.43,3.45,5.09,6.73" style="fill:none;stroke:#fff;stroke-linecap:round;stroke-linejoin:round"></path><path d="M336,253s12.31,2.75,20.75,1.17" style="fill:none;stroke:#263238;stroke-linecap:round;stroke-linejoin:round"></path><path d="M228,248.34s-4.64-3.56-14.18-1" style="fill:none;stroke:#263238;stroke-linecap:round;stroke-linejoin:round"></path><path d="M277.08,241.12a18,18,0,0,1,5,10.15" style="fill:none;stroke:#263238;stroke-linecap:round;stroke-linejoin:round"></path><path d="M379.86,244.47a13.69,13.69,0,0,1-9.59,6.89" style="fill:none;stroke:#263238;stroke-linecap:round;stroke-linejoin:round"></path><path d="M324.83,319.28a22.81,22.81,0,0,1-4.71,2.23" style="fill:none;stroke:#263238;stroke-linecap:round;stroke-linejoin:round"></path><path d="M347.57,294.38c-5.14,8.21-11.41,16.28-19,22.31" style="fill:none;stroke:#263238;stroke-linecap:round;stroke-linejoin:round"></path><path d="M278.25,299.64c6.07,18.17,16.53,39.5,35.73,46.64" style="fill:none;stroke:#263238;stroke-linecap:round;stroke-linejoin:round"></path><path d="M275.25,289.77q.78,2.82,1.64,5.63" style="fill:none;stroke:#263238;stroke-linecap:round;stroke-linejoin:round"></path><path d="M271.88,275c.56,3.33,1.3,6.63,2.1,9.91" style="fill:none;stroke:#263238;stroke-linecap:round;stroke-linejoin:round"></path><path d="M322.87,183.28s-7.37,12.79-17.77,10.26a26.26,26.26,0,0,0,0-9.74c.63-.34,1.05-.52,1.05-.52Z" style="fill:#263238"></path><path d="M337.23,165.5s4.56-5.35,4.45-15.35c-.19-16.14-7.18-31.26-31.13-27.22-10.05,1.7-16.9,8.62-19.06,19.36-1,5-.14,10.91.44,16.37.63,6,.64,11.11,2.11,16.52,2.55,9.43,7.71,15.65,14.3,14.73,7.09-1,18.74-8.11,19-12.16" style="fill:#fff;stroke:#263238;stroke-linecap:round;stroke-linejoin:round"></path><path d="M308.43,149.77s4.6-1.71,7.06,3.69" style="fill:none;stroke:#263238;stroke-linecap:round;stroke-linejoin:round"></path><path d="M293.26,147.22s4.61-1.71,7.07,3.69" style="fill:none;stroke:#263238;stroke-linecap:round;stroke-linejoin:round"></path><path d="M309.34,157.45c0,1.14.51,2.06,1.14,2.06s1.15-.92,1.15-2.06-.51-2.07-1.15-2.07S309.34,156.3,309.34,157.45Z" style="fill:#263238"></path><path d="M295.65,156.13c0,1.14.52,2.07,1.15,2.07s1.14-.93,1.14-2.07-.51-2.06-1.14-2.06S295.65,155,295.65,156.13Z" style="fill:#263238"></path><path d="M309.52,172.81s-5,2.78-9.71,1.56" style="fill:none;stroke:#263238;stroke-linecap:round;stroke-linejoin:round"></path><path d="M308.61,173.74s-.54,3.63-3.94,4a3.15,3.15,0,0,1-3.59-3" style="fill:none;stroke:#263238;stroke-linecap:round;stroke-linejoin:round"></path><path d="M301.13,155.36c0,1.75-7,10.54-6.34,11.59s6.34,1.41,6.34,1.41" style="fill:#fff;stroke:#263238;stroke-linecap:round;stroke-linejoin:round"></path><path d="M326,161.86h-2.9c1.06-5.73-1-14.12-4.39-17.72l5-7.38s-12.12-6.41-29-3.2c0,0-5.32-4.7-3.72-14.45a16.57,16.57,0,0,0,8.79,3.16s-2.36-2.9-1.87-6.06a30.22,30.22,0,0,0,15.77,2.63c9.49-.79,20.36.53,28,11.6,6.66,9.68,4.8,32.15-6.64,40.1l-1.9-2.18s3.73-14.05-1.86-12.23C327.25,157.45,326,161.86,326,161.86Z" style="fill:#263238"></path><path d="M326.89,159.51s2.11-4.56,6.32-3.38.27,19.64-6.32,15.42" style="fill:#fff;stroke:#263238;stroke-linecap:round;stroke-linejoin:round"></path></g></svg>